<svg viewBox="0 0 60 60" style="height: 60px; width: 60px; background-color: rgba(211, 211, 211, 0.2); border: 0.5px solid darkgrey;" class="sparse-matrix"><rect y="0" x="0" width="15" height="15" stroke="black" id="row-0-column-0" fill="white"></rect><rect y="0" x="15" width="15" height="15" stroke="black" id="row-0-column-1" fill="white"></rect><rect y="0" x="30" width="15" height="15" stroke="black" id="row-0-column-2" fill="white"></rect><rect y="0" x="45" width="15" height="15" stroke="black" id="row-0-column-3" fill="white"></rect><rect y="15" x="0" width="15" height="15" stroke="black" id="row-1-column-0" fill="white"></rect><rect y="15" x="15" width="15" height="15" stroke="black" id="row-1-column-1" fill="white"></rect><rect y="15" x="30" width="15" height="15" stroke="black" id="row-1-column-2" fill="white"></rect><rect y="15" x="45" width="15" height="15" stroke="black" id="row-1-column-3" fill="darkgrey"></rect><rect y="30" x="0" width="15" height="15" stroke="black" id="row-2-column-0" fill="white"></rect><rect y="30" x="15" width="15" height="15" stroke="black" id="row-2-column-1" fill="white"></rect><rect y="30" x="30" width="15" height="15" stroke="black" id="row-2-column-2" fill="white"></rect><rect y="30" x="45" width="15" height="15" stroke="black" id="row-2-column-3" fill="white"></rect><rect y="45" x="0" width="15" height="15" stroke="black" id="row-3-column-0" fill="white"></rect><rect y="45" x="15" width="15" height="15" stroke="black" id="row-3-column-1" fill="darkgrey"></rect><rect y="45" x="30" width="15" height="15" stroke="black" id="row-3-column-2" fill="white"></rect><rect y="45" x="45" width="15" height="15" stroke="black" id="row-3-column-3" fill="white"></rect></svg>